<svg width="104" height="106" viewBox="0 0 104 106" fill="none" xmlns="http://www.w3.org/2000/svg">
<g filter="url(#filter0_d)">
<path d="M71.2 9.8C71.2 4.41 75.52 0 80.8 0C86.08 0 90.4 4.41 90.4 9.8C90.4 15.19 86.08 19.6 80.8 19.6C75.52 19.6 71.2 15.19 71.2 9.8ZM94.144 27.342C90.064 25.529 85.6 24.5 80.8 24.5C77.584 24.5 74.512 24.99 71.584 25.872C74.368 28.567 76 32.34 76 36.407V39.2H100V36.407C100 32.438 97.6 28.91 94.144 27.342ZM23.2 19.6C28.48 19.6 32.8 15.19 32.8 9.8C32.8 4.41 28.48 0 23.2 0C17.92 0 13.6 4.41 13.6 9.8C13.6 15.19 17.92 19.6 23.2 19.6ZM32.416 25.872C29.488 24.99 26.416 24.5 23.2 24.5C18.4 24.5 13.936 25.529 9.856 27.342C6.4 28.91 4 32.438 4 36.407V39.2H28V36.407C28 32.34 29.632 28.567 32.416 25.872V25.872ZM42.4 9.8C42.4 4.41 46.72 0 52 0C57.28 0 61.6 4.41 61.6 9.8C61.6 15.19 57.28 19.6 52 19.6C46.72 19.6 42.4 15.19 42.4 9.8ZM71.2 39.2H32.8V36.407C32.8 32.438 35.2 28.91 38.656 27.342C42.736 25.529 47.2 24.5 52 24.5C56.8 24.5 61.264 25.529 65.344 27.342C68.8 28.91 71.2 32.438 71.2 36.407V39.2ZM66.4 68.6C66.4 63.21 70.72 58.8 76 58.8C81.28 58.8 85.6 63.21 85.6 68.6C85.6 73.99 81.28 78.4 76 78.4C70.72 78.4 66.4 73.99 66.4 68.6ZM95.2 98H56.8V95.207C56.8 91.238 59.2 87.71 62.656 86.142C66.736 84.329 71.2 83.3 76 83.3C80.8 83.3 85.264 84.329 89.344 86.142C92.8 87.71 95.2 91.238 95.2 95.207V98ZM18.4 68.6C18.4 63.21 22.72 58.8 28 58.8C33.28 58.8 37.6 63.21 37.6 68.6C37.6 73.99 33.28 78.4 28 78.4C22.72 78.4 18.4 73.99 18.4 68.6ZM47.2 98H8.8V95.207C8.8 91.238 11.2 87.71 14.656 86.142C18.736 84.329 23.2 83.3 28 83.3C32.8 83.3 37.264 84.329 41.344 86.142C44.8 87.71 47.2 91.238 47.2 95.207V98ZM55.6 53.9V44.1H48.4V53.9H37.6L52 68.6L66.4 53.9H55.6Z" fill="#E0B0AC"/>
</g>
<defs>
<filter id="filter0_d" x="0" y="0" width="104" height="106" filterUnits="userSpaceOnUse" color-interpolation-filters="sRGB">
<feFlood flood-opacity="0" result="BackgroundImageFix"/>
<feColorMatrix in="SourceAlpha" type="matrix" values="0 0 0 0 0 0 0 0 0 0 0 0 0 0 0 0 0 0 127 0"/>
<feOffset dy="4"/>
<feGaussianBlur stdDeviation="2"/>
<feColorMatrix type="matrix" values="0 0 0 0 0 0 0 0 0 0 0 0 0 0 0 0 0 0 0.25 0"/>
<feBlend mode="normal" in2="BackgroundImageFix" result="effect1_dropShadow"/>
<feBlend mode="normal" in="SourceGraphic" in2="effect1_dropShadow" result="shape"/>
</filter>
</defs>
</svg>
