<svg width="57" height="57" viewBox="0 0 57 57" fill="none" xmlns="http://www.w3.org/2000/svg">
<path fill-rule="evenodd" clip-rule="evenodd" d="M28.4986 13.7582C24.5913 13.7642 20.8459 15.3192 18.0833 18.0824C15.3207 20.8455 13.7664 24.5912 13.7611 28.4985C13.7656 32.4068 15.32 36.1537 18.0833 38.9175C20.8465 41.6813 24.5932 43.2364 28.5014 43.2417C32.4102 43.2372 36.1575 41.6825 38.9214 38.9185C41.6853 36.1546 43.2401 32.4073 43.2446 28.4985C43.2386 24.5902 41.6828 20.8439 38.9184 18.0812C36.154 15.3184 32.4068 13.7648 28.4986 13.7611V13.7582ZM28.4986 37.5089C26.1096 37.5089 23.8185 36.5599 22.1293 34.8707C20.4401 33.1814 19.4911 30.8903 19.4911 28.5013C19.4911 26.1124 20.4401 23.8214 22.1293 22.1321C23.8185 20.4429 26.1096 19.4939 28.4986 19.4939C30.8875 19.4939 33.1786 20.4429 34.8679 22.1321C36.5571 23.8214 37.5061 26.1124 37.5061 28.5013C37.5061 30.8903 36.5571 33.1814 34.8679 34.8707C33.1786 36.5599 30.8875 37.5089 28.4986 37.5089Z" fill="#C6B2A6"/>
<path d="M46.802 13.8695C46.802 15.82 45.2208 17.4011 43.2703 17.4011C41.3198 17.4011 39.7387 15.82 39.7387 13.8695C39.7387 11.919 41.3198 10.3379 43.2703 10.3379C45.2208 10.3379 46.802 11.919 46.802 13.8695Z" fill="#C6B2A6"/>
<path fill-rule="evenodd" clip-rule="evenodd" d="M40.0185 0H16.9787C12.4768 0.00530568 8.16082 1.79619 4.97776 4.97978C1.79472 8.16338 0.00452543 12.4796 0 16.9815V40.0213C0.00530568 44.5232 1.79619 48.8391 4.97978 52.0222C8.16338 55.2052 12.4796 56.9954 16.9815 57H40.0213C44.5232 56.9947 48.8392 55.2038 52.0222 52.0202C55.2053 48.8366 56.9955 44.5204 57 40.0185V16.9787C56.9947 12.4768 55.2038 8.16082 52.0202 4.97779C48.8366 1.79469 44.5204 0.00455664 40.0185 0ZM51.2672 40.0185C51.2672 41.4956 50.9762 42.9584 50.4109 44.3231C49.8456 45.6879 49.017 46.928 47.9725 47.9725C46.928 49.017 45.6879 49.8456 44.3232 50.4109C42.9584 50.9762 41.4957 51.2671 40.0185 51.2671H16.9787C13.9958 51.2664 11.1354 50.0809 9.02649 47.9715C6.91757 45.862 5.73282 43.0013 5.73282 40.0185V16.9787C5.7336 13.9958 6.91904 11.1354 9.02852 9.02645C11.138 6.91754 13.9987 5.73281 16.9815 5.73281H40.0213C43.0042 5.73356 45.8646 6.91904 47.9735 9.02851C50.0824 11.1379 51.2672 13.9987 51.2672 16.9815V40.0185Z" fill="#C6B2A6"/>
</svg>
