<svg width="23" height="46" viewBox="0 0 23 46" fill="none" xmlns="http://www.w3.org/2000/svg">
<path d="M19.1838 45.9998C18.6928 46.0014 18.2077 45.8931 17.7641 45.6828C17.3206 45.4724 16.9298 45.1653 16.6205 44.7842L0.747595 25.0717C0.26424 24.4839 0 23.7465 0 22.9855C0 22.2245 0.26424 21.4872 0.747595 20.8993L17.1791 1.18686C17.7369 0.515926 18.5385 0.0939994 19.4075 0.0139022C20.2765 -0.0661951 21.1417 0.202097 21.8128 0.759757C22.4839 1.31742 22.906 2.11876 22.9861 2.98751C23.0662 3.85626 22.7978 4.72124 22.24 5.39218L7.55025 23.0019L21.7471 40.6117C22.1489 41.094 22.4042 41.6812 22.4827 42.3039C22.5612 42.9267 22.4596 43.5589 22.1899 44.1257C21.9202 44.6925 21.4938 45.1703 20.9611 45.5024C20.4283 45.8345 19.8116 46.0071 19.1838 45.9998Z" fill="#E0B0AC"/>
</svg>
