<svg width="93" height="111" viewBox="0 0 93 111" fill="none" xmlns="http://www.w3.org/2000/svg">
<g filter="url(#filter0_d)">
<path d="M70.2628 50.861C80.4526 50.861 88.7131 45.2068 88.7131 38.2321C88.7131 31.2574 80.4526 25.6033 70.2628 25.6033C60.073 25.6033 51.8125 31.2574 51.8125 38.2321C51.8125 45.2068 60.073 50.861 70.2628 50.861Z" fill="#E0B0AC"/>
<path fill-rule="evenodd" clip-rule="evenodd" d="M70.5392 58.1258C57.3429 58.1258 52.0889 51.4625 52.0889 47.6028V64.1362C52.0889 71.1131 60.3498 76.7587 70.5392 76.7587C80.7392 76.7587 89.0001 71.1131 89.0001 64.1362V47.9996C89.0001 51.8658 83.7407 58.1258 70.5392 58.1258V58.1258Z" fill="#E0B0AC"/>
<path fill-rule="evenodd" clip-rule="evenodd" d="M70.5392 83.6714C58.7348 83.6714 52.0889 77.2642 52.0889 73.4045V89.7842C52.0889 96.7611 60.3498 102.413 70.5392 102.413C80.7392 102.413 89.0001 96.7611 89.0001 89.7842V73.2061C89.0001 77.0658 82.3489 83.6714 70.5392 83.6714V83.6714Z" fill="#E0B0AC"/>
<path d="M24.9153 25.2576C36.4665 25.2576 45.8306 19.6035 45.8306 12.6288C45.8306 5.6541 36.4665 0 24.9153 0C13.3641 0 4 5.6541 4 12.6288C4 19.6035 13.3641 25.2576 24.9153 25.2576Z" fill="#E0B0AC"/>
<path fill-rule="evenodd" clip-rule="evenodd" d="M25.5794 32.5225C10.6247 32.5225 4.66406 25.8592 4.66406 21.9995V38.5329C4.66406 45.5098 14.03 51.1554 25.5794 51.1554C37.1394 51.1554 46.5 45.5098 46.5 38.5329V22.3964C46.5 26.2625 40.5341 32.5225 25.5794 32.5225V32.5225Z" fill="#E0B0AC"/>
<path fill-rule="evenodd" clip-rule="evenodd" d="M25.5794 58.0682C12.1972 58.0682 4.66406 51.6609 4.66406 47.8012V64.181C4.66406 71.1579 14.03 76.8098 25.5794 76.8098C37.1394 76.8098 46.5 71.1579 46.5 64.181V47.6028C46.5 51.4625 38.9562 58.0682 25.5794 58.0682V58.0682Z" fill="#E0B0AC"/>
<path fill-rule="evenodd" clip-rule="evenodd" d="M25.5794 83.6714C12.1972 83.6714 4.66406 77.2642 4.66406 73.4045V89.7842C4.66406 96.7611 14.03 102.413 25.5794 102.413C37.1394 102.413 46.5 96.7611 46.5 89.7842V73.2061C46.5 77.0658 38.9562 83.6714 25.5794 83.6714V83.6714Z" fill="#E0B0AC"/>
</g>
<defs>
<filter id="filter0_d" x="0" y="0" width="93.0001" height="110.413" filterUnits="userSpaceOnUse" color-interpolation-filters="sRGB">
<feFlood flood-opacity="0" result="BackgroundImageFix"/>
<feColorMatrix in="SourceAlpha" type="matrix" values="0 0 0 0 0 0 0 0 0 0 0 0 0 0 0 0 0 0 127 0"/>
<feOffset dy="4"/>
<feGaussianBlur stdDeviation="2"/>
<feColorMatrix type="matrix" values="0 0 0 0 0 0 0 0 0 0 0 0 0 0 0 0 0 0 0.25 0"/>
<feBlend mode="normal" in2="BackgroundImageFix" result="effect1_dropShadow"/>
<feBlend mode="normal" in="SourceGraphic" in2="effect1_dropShadow" result="shape"/>
</filter>
</defs>
</svg>
