<svg width="23" height="46" viewBox="0 0 23 46" fill="none" xmlns="http://www.w3.org/2000/svg">
<path d="M3.26387 45.9941C2.5026 45.9956 1.76484 45.7288 1.17866 45.24C0.848749 44.9648 0.576037 44.6268 0.376144 44.2454C0.176251 43.8639 0.0531053 43.4465 0.0137605 43.0172C-0.0255843 42.5878 0.0196452 42.1548 0.146858 41.743C0.27407 41.3312 0.480763 40.9487 0.755105 40.6174L15.3516 23.045L1.27641 5.43972C1.00577 5.10437 0.803661 4.71851 0.681703 4.30432C0.559746 3.89012 0.520342 3.45575 0.565758 3.02618C0.611174 2.59661 0.740512 2.18031 0.946341 1.8012C1.15217 1.4221 1.43043 1.08766 1.76513 0.817111C2.10224 0.518653 2.49701 0.29353 2.92468 0.155871C3.35235 0.0182126 3.80369 -0.0290091 4.25035 0.0171674C4.69702 0.0633439 5.12938 0.201923 5.5203 0.424207C5.91122 0.646492 6.25226 0.947682 6.52201 1.30888L22.2588 20.9795C22.738 21.5662 23 22.302 23 23.0614C23 23.8207 22.738 24.5565 22.2588 25.1432L5.96813 44.8138C5.64128 45.2106 5.22608 45.5242 4.75623 45.7293C4.28637 45.9343 3.77509 46.0251 3.26387 45.9941Z" fill="#E0B0AC"/>
</svg>
